<?xml version="1.0" standalone="no"?>
<!DOCTYPE svg PUBLIC "-//W3C//DTD SVG 1.1//EN" "http://www.w3.org/Graphics/SVG/1.1/DTD/svg11.dtd" >
<svg xmlns="http://www.w3.org/2000/svg" xmlns:xlink="http://www.w3.org/1999/xlink" version="1.1">
<metadata>
Created by FontForge 20190420 at Tue Aug  3 13:53:27 2010
 By convertio
Copyright MathieuBadimon 2009
</metadata>
<defs>
<font id="Pixelated-Arial-Regular-11" horiz-adv-x="384" >
  <font-face 
    font-family="Pixelated Arial Regular 11"
    font-weight="400"
    font-stretch="normal"
    units-per-em="1024"
    panose-1="0 0 4 0 0 0 0 0 0 0"
    ascent="819"
    descent="-205"
    x-height="384"
    cap-height="512"
    bbox="-64 -128 640 576"
    underline-thickness="51"
    underline-position="77"
    unicode-range="U+000D-201D"
  />
<missing-glyph horiz-adv-x="192" 
d="M256 72v82h-82v-82h82zM337 167v82h-163v-82h163zM256 262v82h-82v-82h82zM337 357v81h-81q-34 0 -58 -23q-24 -24 -24 -58h163zM0 0v512h512v-512h-512z" />
    <glyph glyph-name=".notdef" horiz-adv-x="192" 
d="M256 72v82h-82v-82h82zM337 167v82h-163v-82h163zM256 262v82h-82v-82h82zM337 357v81h-81q-34 0 -58 -23q-24 -24 -24 -58h163zM0 0v512h512v-512h-512z" />
    <glyph glyph-name="glyph1" horiz-adv-x="0" 
 />
    <glyph glyph-name="glyph1" horiz-adv-x="0" 
 />
    <glyph glyph-name="uni000D" unicode="&#xd;" horiz-adv-x="0" 
 />
    <glyph glyph-name="space" unicode=" " horiz-adv-x="192" 
 />
    <glyph glyph-name="exclam" unicode="!" horiz-adv-x="128" 
d="M0 0v64h64v-64h-64zM0 128v384h64v-384h-64z" />
    <glyph glyph-name="quotedbl" unicode="&#x22;" horiz-adv-x="256" 
d="M0 320v192h64v-192h-64zM128 320v192h64v-192h-64z" />
    <glyph glyph-name="numbersign" unicode="#" 
d="M192 192v128h-64v-128h64zM0 0v192h64v128h-64v64h128v128h64v-128h64v128h64v-192h-64v-128h64v-64h-128v-128h-64v128h-64v-128h-64z" />
    <glyph glyph-name="dollar" unicode="$" 
d="M0 64v64h64v-64h-64zM256 64v192h64v-192h-64zM0 320v128h64v-128h-64zM256 384v64h64v-64h-64zM128 -64v64h-64v64h64v192h-64v64h64v128h-64v64h192v-64h-64v-128h64v-64h-64v-192h64v-64h-64v-64h-64z" />
    <glyph glyph-name="percent" unicode="%" horiz-adv-x="640" 
d="M128 0v64h64v-64h-64zM384 0v64h128v-64h-128zM192 64v128h64v-128h-64zM320 64v128h64v-128h-64zM512 64v128h64v-128h-64zM384 192v64h128v-64h-128zM64 256v64h128v-64h-128zM256 192v128h64v-128h-64zM0 320v128h64v-128h-64zM192 320v128h64v-128h-64zM320 320v128
h64v-128h-64zM64 448v64h128v-64h-128zM384 448v64h64v-64h-64z" />
    <glyph glyph-name="ampersand" unicode="&#x26;" horiz-adv-x="448" 
d="M64 0v64h192v-64h-192zM320 0v64h64v-64h-64zM0 64v128h64v-128h-64zM256 64v128h128v-64h-64v-64h-64zM64 192v64h64v-64h-64zM192 192v64h-64v64h128v-128h-64zM64 320v128h64v-128h-64zM256 320v128h64v-128h-64zM128 448v64h128v-64h-128z" />
    <glyph glyph-name="quotesingle" unicode="'" horiz-adv-x="128" 
d="M0 320v192h64v-192h-64z" />
    <glyph glyph-name="parenleft" unicode="(" horiz-adv-x="256" 
d="M128 -128v64h64v-64h-64zM64 -64v64h64v-64h-64zM0 0v384h64v-384h-64zM64 384v64h64v-64h-64zM128 448v64h64v-64h-64z" />
    <glyph glyph-name="parenright" unicode=")" horiz-adv-x="256" 
d="M0 -128v64h64v-64h-64zM64 -64v64h64v-64h-64zM128 0v384h64v-384h-64zM64 384v64h64v-64h-64zM0 448v64h64v-64h-64z" />
    <glyph glyph-name="asterisk" unicode="*" horiz-adv-x="256" 
d="M0 256v64h64v-64h-64zM128 256v64h64v-64h-64zM64 320v64h-64v64h64v64h64v-64h64v-64h-64v-64h-64z" />
    <glyph glyph-name="plus" unicode="+" 
d="M128 64v128h-128v64h128v128h64v-128h128v-64h-128v-128h-64z" />
    <glyph glyph-name="comma" unicode="," horiz-adv-x="192" 
d="M64 -128v192h64v-192h-64z" />
    <glyph glyph-name="hyphen" unicode="-" horiz-adv-x="256" 
d="M0 128v64h192v-64h-192z" />
    <glyph glyph-name="period" unicode="." horiz-adv-x="192" 
d="M64 0v64h64v-64h-64z" />
    <glyph glyph-name="slash" unicode="/" horiz-adv-x="192" 
d="M0 0v128h64v-128h-64zM64 128v256h64v-256h-64zM128 384v128h64v-128h-64z" />
    <glyph glyph-name="zero" unicode="0" 
d="M64 0v64h192v-64h-192zM0 64v384h64v-384h-64zM256 64v384h64v-384h-64zM64 448v64h192v-64h-192z" />
    <glyph glyph-name="one" unicode="1" 
d="M0 320v64h64v-64h-64zM128 0v384h-64v64h64v64h64v-512h-64z" />
    <glyph glyph-name="two" unicode="2" 
d="M0 0v64h64v64h64v-64h192v-64h-320zM128 128v64h64v-64h-64zM192 192v64h64v-64h-64zM0 384v64h64v-64h-64zM256 256v192h64v-192h-64zM64 448v64h192v-64h-192z" />
    <glyph glyph-name="three" unicode="3" 
d="M64 0v64h192v-64h-192zM0 64v64h64v-64h-64zM256 64v192h64v-192h-64zM128 256v64h128v-64h-128zM0 384v64h64v-64h-64zM256 320v128h64v-128h-64zM64 448v64h192v-64h-192z" />
    <glyph glyph-name="four" unicode="4" 
d="M64 256v128h64v-128h-64zM192 0v128h-192v128h64v-64h128v192h-64v64h64v64h64v-320h64v-64h-64v-128h-64z" />
    <glyph glyph-name="five" unicode="5" 
d="M64 0v64h192v-64h-192zM0 64v64h64v-64h-64zM256 64v192h64v-192h-64zM0 256v128h64v-64h192v-64h-256zM64 384v128h256v-64h-192v-64h-64z" />
    <glyph glyph-name="six" unicode="6" 
d="M64 0v64h192v-64h-192zM256 64v192h64v-192h-64zM0 64v384h64v-128h192v-64h-192v-192h-64zM256 384v64h64v-64h-64zM64 448v64h192v-64h-192z" />
    <glyph glyph-name="seven" unicode="7" 
d="M64 0v192h64v-192h-64zM128 192v128h64v-128h-64zM192 320v128h-192v64h320v-64h-64v-128h-64z" />
    <glyph glyph-name="eight" unicode="8" 
d="M64 0v64h192v-64h-192zM0 64v192h64v-192h-64zM256 64v192h64v-192h-64zM64 256v64h192v-64h-192zM0 320v128h64v-128h-64zM256 320v128h64v-128h-64zM64 448v64h192v-64h-192z" />
    <glyph glyph-name="nine" unicode="9" 
d="M64 0v64h192v-64h-192zM0 64v64h64v-64h-64zM0 256v192h64v-192h-64zM256 64v128h-192v64h192v192h64v-384h-64zM64 448v64h192v-64h-192z" />
    <glyph glyph-name="colon" unicode=":" horiz-adv-x="192" 
d="M0 0v64h64v-64h-64zM0 320v64h64v-64h-64z" />
    <glyph glyph-name="semicolon" unicode=";" horiz-adv-x="192" 
d="M0 -128v192h64v-192h-64zM0 320v64h64v-64h-64z" />
    <glyph glyph-name="less" unicode="&#x3c;" 
d="M256 64v64h64v-64h-64zM64 128v64h192v-64h-192zM0 192v64h64v-64h-64zM64 256v64h192v-64h-192zM256 320v64h64v-64h-64z" />
    <glyph glyph-name="equal" unicode="=" 
d="M0 128v64h320v-64h-320zM0 256v64h320v-64h-320z" />
    <glyph glyph-name="greater" unicode="&#x3e;" 
d="M0 64v64h64v-64h-64zM64 128v64h192v-64h-192zM256 192v64h64v-64h-64zM64 256v64h192v-64h-192zM0 320v64h64v-64h-64z" />
    <glyph glyph-name="question" unicode="?" 
d="M128 0v64h64v-64h-64zM128 128v128h64v-128h-64zM192 256v64h64v-64h-64zM0 384v64h64v-64h-64zM256 320v128h64v-128h-64zM64 448v64h192v-64h-192z" />
    <glyph glyph-name="at" unicode="@" horiz-adv-x="704" 
d="M128 -128v64h448v-64h-448zM64 -64v64h64v-64h-64zM576 -64v64h64v-64h-64zM192 0v64h128v-64h-128zM512 64v64h64v-64h-64zM128 64v192h64v-192h-64zM0 0v320h64v-320h-64zM192 256v64h64v-64h-64zM256 320v64h128v-64h-128zM384 0v64h-64v64h64v192h64v64h64v-128h-64
v-192h64v-64h-128zM576 128v256h64v-256h-64zM64 320v128h128v-64h-64v-64h-64zM512 384v64h64v-64h-64zM192 448v64h320v-64h-320z" />
    <glyph glyph-name="A" unicode="A" horiz-adv-x="512" 
d="M0 0v128h64v-128h-64zM384 0v128h64v-128h-64zM64 128v128h64v-64h192v64h64v-128h-320zM128 256v192h64v-192h-64zM256 256v192h64v-192h-64zM192 448v64h64v-64h-64z" />
    <glyph glyph-name="B" unicode="B" horiz-adv-x="448" 
d="M0 0v512h320v-64h-256v-128h256v128h64v-384h-64v192h-256v-192h256v-64h-320z" />
    <glyph glyph-name="C" unicode="C" horiz-adv-x="448" 
d="M128 0v64h192v-64h-192zM64 64v64h64v-64h-64zM320 64v64h64v-64h-64zM0 128v256h64v-256h-64zM64 384v64h64v-64h-64zM320 384v64h64v-64h-64zM128 448v64h192v-64h-192z" />
    <glyph glyph-name="D" unicode="D" horiz-adv-x="448" 
d="M256 64v64h64v-64h-64zM320 128v256h64v-256h-64zM256 384v64h64v-64h-64zM0 0v512h256v-64h-192v-384h192v-64h-256z" />
    <glyph glyph-name="E" unicode="E" 
d="M0 0v512h320v-64h-256v-128h256v-64h-256v-192h256v-64h-320z" />
    <glyph glyph-name="F" unicode="F" 
d="M0 0v512h320v-64h-256v-128h192v-64h-192v-256h-64z" />
    <glyph glyph-name="G" unicode="G" horiz-adv-x="512" 
d="M128 0v64h192v-64h-192zM64 64v64h64v-64h-64zM320 64v64h64v-64h-64zM384 128v64h-128v64h192v-128h-64zM0 128v256h64v-256h-64zM384 320v64h64v-64h-64zM64 384v64h64v-64h-64zM320 384v64h64v-64h-64zM128 448v64h192v-64h-192z" />
    <glyph glyph-name="H" unicode="H" horiz-adv-x="448" 
d="M0 0v512h64v-192h256v192h64v-512h-64v256h-256v-256h-64z" />
    <glyph glyph-name="I" unicode="I" horiz-adv-x="128" 
d="M0 0v512h64v-512h-64z" />
    <glyph glyph-name="J" unicode="J" horiz-adv-x="320" 
d="M64 0v64h128v-64h-128zM0 64v128h64v-128h-64zM192 64v448h64v-448h-64z" />
    <glyph glyph-name="K" unicode="K" horiz-adv-x="448" 
d="M320 0v64h64v-64h-64zM256 64v128h64v-128h-64zM192 192v64h-64v64h64v64h64v-192h-64zM256 384v64h64v-64h-64zM0 0v512h64v-256h64v-64h-64v-192h-64zM320 448v64h64v-64h-64z" />
    <glyph glyph-name="L" unicode="L" 
d="M0 0v512h64v-448h256v-64h-320z" />
    <glyph glyph-name="M" unicode="M" horiz-adv-x="512" 
d="M192 0v128h64v-128h-64zM128 128v192h64v-192h-64zM256 128v192h64v-192h-64zM0 0v512h64v-64h64v-128h-64v-320h-64zM384 0v320h-64v128h64v64h64v-512h-64z" />
    <glyph glyph-name="N" unicode="N" horiz-adv-x="448" 
d="M192 128v128h64v-128h-64zM128 256v128h64v-128h-64zM0 0v512h64v-64h64v-64h-64v-384h-64zM320 0v64h-64v64h64v384h64v-512h-64z" />
    <glyph glyph-name="O" unicode="O" horiz-adv-x="512" 
d="M128 0v64h192v-64h-192zM64 64v64h64v-64h-64zM320 64v64h64v-64h-64zM0 128v256h64v-256h-64zM384 128v256h64v-256h-64zM64 384v64h64v-64h-64zM320 384v64h64v-64h-64zM128 448v64h192v-64h-192z" />
    <glyph glyph-name="P" unicode="P" 
d="M256 256v192h64v-192h-64zM0 0v512h256v-64h-192v-192h192v-64h-192v-192h-64z" />
    <glyph glyph-name="Q" unicode="Q" horiz-adv-x="512" 
d="M128 0v64h192v-64h-192zM384 0v64h64v-64h-64zM64 64v64h64v-64h-64zM320 64v64h64v-64h-64zM192 128v64h128v-64h-128zM0 128v256h64v-256h-64zM384 128v256h64v-256h-64zM64 384v64h64v-64h-64zM320 384v64h64v-64h-64zM128 448v64h192v-64h-192z" />
    <glyph glyph-name="R" unicode="R" horiz-adv-x="448" 
d="M320 0v64h64v-64h-64zM256 64v128h64v-128h-64zM320 320v128h64v-128h-64zM0 0v512h320v-64h-256v-128h256v-64h-64v-64h-64v64h-128v-256h-64z" />
    <glyph glyph-name="S" unicode="S" horiz-adv-x="448" 
d="M64 0v64h256v-64h-256zM0 64v64h64v-64h-64zM320 64v128h64v-128h-64zM192 192v64h128v-64h-128zM64 256v64h128v-64h-128zM0 320v128h64v-128h-64zM320 384v64h64v-64h-64zM64 448v64h256v-64h-256z" />
    <glyph glyph-name="T" unicode="T" 
d="M128 0v448h-128v64h320v-64h-128v-448h-64z" />
    <glyph glyph-name="U" unicode="U" horiz-adv-x="448" 
d="M64 0v64h256v-64h-256zM0 64v448h64v-448h-64zM320 64v448h64v-448h-64z" />
    <glyph glyph-name="V" unicode="V" horiz-adv-x="512" 
d="M192 0v128h64v-128h-64zM128 128v128h64v-128h-64zM256 128v128h64v-128h-64zM64 256v128h64v-128h-64zM320 256v128h64v-128h-64zM0 384v128h64v-128h-64zM384 384v128h64v-128h-64z" />
    <glyph glyph-name="W" unicode="W" horiz-adv-x="640" 
d="M64 0v128h64v-128h-64zM448 0v128h64v-128h-64zM128 128v128h64v-128h-64zM384 128v128h64v-128h-64zM0 128v256h64v-256h-64zM512 128v256h64v-256h-64zM192 256v192h64v-192h-64zM320 256v192h64v-192h-64zM-64 384v128h64v-128h-64zM256 448v64h64v-64h-64zM576 384
v128h64v-128h-64z" />
    <glyph glyph-name="X" unicode="X" horiz-adv-x="448" 
d="M0 0v64h64v-64h-64zM320 0v64h64v-64h-64zM64 64v128h64v-128h-64zM256 64v128h64v-128h-64zM128 192v128h128v-128h-128zM64 320v128h64v-128h-64zM256 320v128h64v-128h-64zM0 448v64h64v-64h-64zM320 448v64h64v-64h-64z" />
    <glyph glyph-name="Y" unicode="Y" horiz-adv-x="512" 
d="M192 0v256h64v-256h-64zM128 256v64h64v-64h-64zM256 256v64h64v-64h-64zM64 320v128h64v-128h-64zM320 320v128h64v-128h-64zM0 448v64h64v-64h-64zM384 448v64h64v-64h-64z" />
    <glyph glyph-name="Z" unicode="Z" horiz-adv-x="448" 
d="M0 0v64h64v64h64v-64h256v-64h-384zM128 128v128h64v-128h-64zM192 256v128h64v-128h-64zM256 384v64h-192v64h320v-64h-64v-64h-64z" />
    <glyph glyph-name="bracketleft" unicode="[" horiz-adv-x="192" 
d="M0 -128v640h128v-64h-64v-512h64v-64h-128z" />
    <glyph glyph-name="backslash" unicode="\" horiz-adv-x="192" 
d="M128 0v128h64v-128h-64zM64 128v256h64v-256h-64zM0 384v128h64v-128h-64z" />
    <glyph glyph-name="bracketright" unicode="]" horiz-adv-x="192" 
d="M0 -128v64h64v512h-64v64h128v-640h-128z" />
    <glyph glyph-name="asciicircum" unicode="^" horiz-adv-x="320" 
d="M0 256v64h64v-64h-64zM256 256v64h64v-64h-64zM64 320v128h64v-128h-64zM192 320v128h64v-128h-64zM128 448v64h64v-64h-64z" />
    <glyph glyph-name="underscore" unicode="_" 
d="M0 -128v64h384v-64h-384z" />
    <glyph glyph-name="grave" unicode="`" horiz-adv-x="256" 
d="M64 384v64h64v-64h-64zM0 448v64h64v-64h-64z" />
    <glyph glyph-name="a" unicode="a" 
d="M64 0v64h128v-64h-128zM0 64v128h64v-128h-64zM0 256v64h64v-64h-64zM256 0v64h-64v64h64v64h-192v64h192v64h64v-320h-64zM64 320v64h192v-64h-192z" />
    <glyph glyph-name="b" unicode="b" 
d="M128 0v64h128v-64h-128zM256 64v256h64v-256h-64zM128 320v64h128v-64h-128zM0 0v512h64v-192h64v-64h-64v-128h64v-64h-64v-64h-64z" />
    <glyph glyph-name="c" unicode="c" 
d="M64 0v64h192v-64h-192zM256 64v64h64v-64h-64zM0 64v256h64v-256h-64zM256 256v64h64v-64h-64zM64 320v64h192v-64h-192z" />
    <glyph glyph-name="d" unicode="d" 
d="M64 0v64h128v-64h-128zM0 64v256h64v-256h-64zM64 320v64h128v-64h-128zM256 0v64h-64v64h64v128h-64v64h64v192h64v-512h-64z" />
    <glyph glyph-name="e" unicode="e" 
d="M64 0v64h192v-64h-192zM256 64v64h64v-64h-64zM0 64v256h64v-64h192v64h64v-128h-256v-128h-64zM64 320v64h192v-64h-192z" />
    <glyph glyph-name="f" unicode="f" horiz-adv-x="256" 
d="M64 0v320h-64v64h64v64h64v-64h64v-64h-64v-320h-64zM128 448v64h64v-64h-64z" />
    <glyph glyph-name="g" unicode="g" 
d="M0 -128v64h256v-64h-256zM64 0v64h128v-64h-128zM0 64v256h64v-256h-64zM64 320v64h128v-64h-128zM256 -64v128h-64v64h64v128h-64v64h64v64h64v-448h-64z" />
    <glyph glyph-name="h" unicode="h" 
d="M256 0v320h64v-320h-64zM128 320v64h128v-64h-128zM0 0v512h64v-192h64v-64h-64v-256h-64z" />
    <glyph glyph-name="i" unicode="i" horiz-adv-x="128" 
d="M0 0v384h64v-384h-64zM0 448v64h64v-64h-64z" />
    <glyph glyph-name="j" unicode="j" horiz-adv-x="128" 
d="M-64 -128v64h64v-64h-64zM0 -64v448h64v-448h-64zM0 448v64h64v-64h-64z" />
    <glyph glyph-name="k" unicode="k" horiz-adv-x="320" 
d="M192 0v64h64v-64h-64zM128 64v128h64v-128h-64zM128 256v64h64v-64h-64zM192 320v64h64v-64h-64zM0 0v512h64v-256h64v-64h-64v-192h-64z" />
    <glyph glyph-name="l" unicode="l" horiz-adv-x="128" 
d="M0 0v512h64v-512h-64z" />
    <glyph glyph-name="m" unicode="m" horiz-adv-x="512" 
d="M384 0v320h64v-320h-64zM0 0v384h64v-64h64v-64h-64v-256h-64zM192 0v320h-64v64h256v-64h-128v-320h-64z" />
    <glyph glyph-name="n" unicode="n" 
d="M256 0v320h64v-320h-64zM0 0v384h256v-64h-192v-320h-64z" />
    <glyph glyph-name="o" unicode="o" 
d="M64 0v64h192v-64h-192zM0 64v256h64v-256h-64zM256 64v256h64v-256h-64zM64 320v64h192v-64h-192z" />
    <glyph glyph-name="p" unicode="p" 
d="M128 0v64h128v-64h-128zM256 64v256h64v-256h-64zM0 -128v512h64v-64h64v-64h-64v-128h64v-64h-64v-192h-64zM128 320v64h128v-64h-128z" />
    <glyph glyph-name="q" unicode="q" 
d="M64 0v64h128v-64h-128zM0 64v256h64v-256h-64zM64 320v64h128v-64h-128zM256 -128v192h-64v64h64v128h-64v64h64v64h64v-512h-64z" />
    <glyph glyph-name="r" unicode="r" horiz-adv-x="256" 
d="M0 0v384h64v-64h64v-64h-64v-256h-64zM128 320v64h64v-64h-64z" />
    <glyph glyph-name="s" unicode="s" 
d="M64 0v64h192v-64h-192zM0 64v64h64v-64h-64zM256 64v64h64v-64h-64zM192 128v64h64v-64h-64zM64 192v64h128v-64h-128zM0 256v64h64v-64h-64zM256 256v64h64v-64h-64zM64 320v64h192v-64h-192z" />
    <glyph glyph-name="t" unicode="t" horiz-adv-x="192" 
d="M0 0v320h-64v64h64v128h64v-128h64v-64h-64v-256h64v-64h-128z" />
    <glyph glyph-name="u" unicode="u" 
d="M64 0v64h128v-64h-128zM0 64v320h64v-320h-64zM256 0v64h-64v64h64v256h64v-384h-64z" />
    <glyph glyph-name="v" unicode="v" 
d="M128 0v128h64v-128h-64zM64 128v128h64v-128h-64zM192 128v128h64v-128h-64zM0 256v128h64v-128h-64zM256 256v128h64v-128h-64z" />
    <glyph glyph-name="w" unicode="w" horiz-adv-x="640" 
d="M128 0v128h64v-128h-64zM384 0v128h64v-128h-64zM64 128v128h64v-128h-64zM448 128v128h64v-128h-64zM192 128v192h64v-192h-64zM320 128v192h64v-192h-64zM0 256v128h64v-128h-64zM256 320v64h64v-64h-64zM512 256v128h64v-128h-64z" />
    <glyph glyph-name="x" unicode="x" 
d="M0 0v64h64v-64h-64zM256 0v64h64v-64h-64zM64 64v64h64v-64h-64zM192 64v64h64v-64h-64zM128 128v128h64v-128h-64zM64 256v64h64v-64h-64zM192 256v64h64v-64h-64zM0 320v64h64v-64h-64zM256 320v64h64v-64h-64z" />
    <glyph glyph-name="y" unicode="y" 
d="M64 -128v64h64v-64h-64zM128 -64v192h64v-192h-64zM64 128v128h64v-128h-64zM192 128v128h64v-128h-64zM0 256v128h64v-128h-64zM256 256v128h64v-128h-64z" />
    <glyph glyph-name="z" unicode="z" 
d="M0 0v64h64v64h64v-64h192v-64h-320zM128 128v128h64v-128h-64zM192 256v64h-192v64h320v-64h-64v-64h-64z" />
    <glyph glyph-name="braceleft" unicode="{" horiz-adv-x="256" 
d="M128 -128v64h64v-64h-64zM64 -64v256h64v-256h-64zM0 192v64h64v-64h-64zM64 256v192h64v-192h-64zM128 448v64h64v-64h-64z" />
    <glyph glyph-name="bar" unicode="|" horiz-adv-x="128" 
d="M0 -128v640h64v-640h-64z" />
    <glyph glyph-name="braceright" unicode="}" horiz-adv-x="256" 
d="M64 -128v64h64v-64h-64zM128 -64v256h64v-256h-64zM192 192v64h64v-64h-64zM128 256v192h64v-192h-64zM64 448v64h64v-64h-64z" />
    <glyph glyph-name="asciitilde" unicode="~" 
d="M0 192v128h192v-64h64v-64h-128v64h-64v-64h-64zM256 256v64h64v-64h-64z" />
    <glyph glyph-name="agrave" unicode="&#xe0;" 
d="M64 0v64h128v-64h-128zM0 64v128h64v-128h-64zM0 256v64h64v-64h-64zM256 0v64h-64v64h64v64h-192v64h192v64h64v-320h-64zM64 320v64h192v-64h-192zM192 448v64h64v-64h-64zM128 512v64h64v-64h-64z" />
    <glyph glyph-name="egrave" unicode="&#xe8;" 
d="M64 0v64h192v-64h-192zM256 64v64h64v-64h-64zM0 64v256h64v-64h192v64h64v-128h-256v-128h-64zM64 320v64h192v-64h-192zM128 448v64h64v-64h-64zM64 512v64h64v-64h-64z" />
    <glyph glyph-name="eacute" unicode="&#xe9;" 
d="M64 0v64h192v-64h-192zM256 64v64h64v-64h-64zM0 64v256h64v-64h192v64h64v-128h-256v-128h-64zM64 320v64h192v-64h-192zM128 448v64h64v-64h-64zM192 512v64h64v-64h-64z" />
    <glyph glyph-name="ecircumflex" unicode="&#xea;" 
d="M64 0v64h192v-64h-192zM256 64v64h64v-64h-64zM0 64v256h64v-64h192v64h64v-128h-256v-128h-64zM64 320v64h192v-64h-192zM64 448v64h64v-64h-64zM192 448v64h64v-64h-64zM128 512v64h64v-64h-64z" />
    <glyph glyph-name="edieresis" unicode="&#xeb;" 
d="M64 0v64h192v-64h-192zM256 64v64h64v-64h-64zM0 64v256h64v-64h192v64h64v-128h-256v-128h-64zM64 320v64h192v-64h-192zM64 448v64h64v-64h-64zM192 448v64h64v-64h-64z" />
    <glyph glyph-name="igrave" unicode="&#xec;" horiz-adv-x="128" 
d="M0 0v384h64v-384h-64zM0 448v64h64v-64h-64zM-64 512v64h64v-64h-64z" />
    <glyph glyph-name="iacute" unicode="&#xed;" horiz-adv-x="128" 
d="M0 0v384h64v-384h-64zM0 448v64h64v-64h-64zM64 512v64h64v-64h-64z" />
    <glyph glyph-name="icircumflex" unicode="&#xee;" horiz-adv-x="128" 
d="M0 0v384h64v-384h-64zM0 448v64h64v-64h-64zM128 448v64h64v-64h-64zM64 512v64h64v-64h-64z" />
    <glyph glyph-name="idieresis" unicode="&#xef;" horiz-adv-x="128" 
d="M0 0v384h64v-384h-64zM-64 448v64h64v-64h-64zM64 448v64h64v-64h-64z" />
    <glyph glyph-name="eth" unicode="&#xf0;" 
d="M64 0v64h192v-64h-192zM0 64v192h64v-192h-64zM64 384v64h64v-64h-64zM256 64v192h-192v64h128v128h-64v64h192v-64h-64v-128h64v-256h-64z" />
    <glyph glyph-name="ntilde" unicode="&#xf1;" 
d="M256 0v320h64v-320h-64zM0 0v384h256v-64h-192v-320h-64zM64 448v64h64v-64h-64zM192 448v64h64v-64h-64zM128 512v64h64v-64h-64zM256 512v64h64v-64h-64z" />
    <glyph glyph-name="ograve" unicode="&#xf2;" 
d="M64 0v64h192v-64h-192zM0 64v256h64v-256h-64zM256 64v256h64v-256h-64zM64 320v64h192v-64h-192zM128 448v64h64v-64h-64zM64 512v64h64v-64h-64z" />
    <glyph glyph-name="oacute" unicode="&#xf3;" 
d="M64 0v64h192v-64h-192zM0 64v256h64v-256h-64zM256 64v256h64v-256h-64zM64 320v64h192v-64h-192zM128 448v64h64v-64h-64zM192 512v64h64v-64h-64z" />
    <glyph glyph-name="ocircumflex" unicode="&#xf4;" 
d="M64 0v64h192v-64h-192zM0 64v256h64v-256h-64zM256 64v256h64v-256h-64zM64 320v64h192v-64h-192zM64 448v64h64v-64h-64zM192 448v64h64v-64h-64zM128 512v64h64v-64h-64z" />
    <glyph glyph-name="otilde" unicode="&#xf5;" 
d="M64 0v64h192v-64h-192zM0 64v256h64v-256h-64zM256 64v256h64v-256h-64zM64 320v64h192v-64h-192zM64 448v64h64v-64h-64zM192 448v64h64v-64h-64zM128 512v64h64v-64h-64zM256 512v64h64v-64h-64z" />
    <glyph glyph-name="odieresis" unicode="&#xf6;" 
d="M64 0v64h192v-64h-192zM0 64v256h64v-256h-64zM256 64v256h64v-256h-64zM64 320v64h192v-64h-192zM64 448v64h64v-64h-64zM192 448v64h64v-64h-64z" />
    <glyph glyph-name="oslash" unicode="&#xf8;" 
d="M128 0v64h128v-64h-128zM128 128v128h64v-128h-64zM0 0v320h64v-192h64v-64h-64v-64h-64zM64 320v64h128v-64h-128zM256 64v192h-64v64h64v64h64v-320h-64z" />
    <glyph glyph-name="ugrave" unicode="&#xf9;" 
d="M64 0v64h128v-64h-128zM0 64v320h64v-320h-64zM256 0v64h-64v64h64v256h64v-384h-64zM128 448v64h64v-64h-64zM64 512v64h64v-64h-64z" />
    <glyph glyph-name="uacute" unicode="&#xfa;" 
d="M64 0v64h128v-64h-128zM0 64v320h64v-320h-64zM256 0v64h-64v64h64v256h64v-384h-64zM128 448v64h64v-64h-64zM192 512v64h64v-64h-64z" />
    <glyph glyph-name="ucircumflex" unicode="&#xfb;" 
d="M64 0v64h128v-64h-128zM0 64v320h64v-320h-64zM256 0v64h-64v64h64v256h64v-384h-64zM64 448v64h64v-64h-64zM192 448v64h64v-64h-64zM128 512v64h64v-64h-64z" />
    <glyph glyph-name="udieresis" unicode="&#xfc;" 
d="M64 0v64h128v-64h-128zM0 64v320h64v-320h-64zM256 0v64h-64v64h64v256h64v-384h-64zM64 448v64h64v-64h-64zM192 448v64h64v-64h-64z" />
    <glyph glyph-name="yacute" unicode="&#xfd;" 
d="M64 -128v64h64v-64h-64zM128 -64v192h64v-192h-64zM64 128v128h64v-128h-64zM192 128v128h64v-128h-64zM0 256v128h64v-128h-64zM256 256v128h64v-128h-64zM128 448v64h64v-64h-64zM192 512v64h64v-64h-64z" />
    <glyph glyph-name="thorn" unicode="&#xfe;" 
d="M256 64v256h64v-256h-64zM0 -128v640h64v-128h192v-64h-192v-256h192v-64h-192v-128h-64z" />
    <glyph glyph-name="ydieresis" unicode="&#xff;" 
d="M64 -128v64h64v-64h-64zM128 -64v192h64v-192h-64zM64 128v128h64v-128h-64zM192 128v128h64v-128h-64zM0 256v128h64v-128h-64zM256 256v128h64v-128h-64zM64 448v64h64v-64h-64zM192 448v64h64v-64h-64z" />
    <glyph glyph-name="quoteleft" unicode="&#x2018;" horiz-adv-x="128" 
d="M0 320v192h64v-192h-64z" />
    <glyph glyph-name="quoteright" unicode="&#x2019;" horiz-adv-x="128" 
d="M0 320v192h64v-192h-64z" />
    <glyph glyph-name="quotedblleft" unicode="&#x201c;" horiz-adv-x="256" 
d="M0 320v192h64v-192h-64zM128 320v192h64v-192h-64z" />
    <glyph glyph-name="quotedblright" unicode="&#x201d;" horiz-adv-x="256" 
d="M0 320v192h64v-192h-64zM128 320v192h64v-192h-64z" />
  </font>
</defs>
</svg>
